<?xml version="1.0" standalone="no"?>
<!DOCTYPE svg PUBLIC "-//W3C//DTD SVG 20010904//EN"
 "http://www.w3.org/TR/2001/REC-SVG-20010904/DTD/svg10.dtd">
<svg version="1.0" xmlns="http://www.w3.org/2000/svg"
 width="221.000000pt" height="212.000000pt" viewBox="0 0 221.000000 212.000000"
 preserveAspectRatio="xMidYMid meet">

<g transform="translate(0.000000,212.000000) scale(0.100000,-0.100000)"
fill="#000000" stroke="none">
<path d="M1 1068 c0 -694 4 -1048 10 -1038 5 8 174 301 376 650 337 585 488
847 699 1212 43 76 81 137 84 138 3 0 27 -38 54 -85 l48 -85 -53 -93 c-29 -50
-136 -236 -238 -412 -333 -578 -391 -679 -391 -687 0 -7 189 -340 327 -575
l54 -93 620 0 619 0 0 105 0 105 -612 0 -613 0 -110 192 c-60 106 -111 196
-113 200 -2 4 275 8 616 8 l620 0 93 -162 c50 -90 98 -172 105 -183 12 -16 14
125 14 918 l0 937 -1105 0 -1105 0 1 -1052z m1446 492 c53 -91 181 -313 285
-493 105 -181 188 -330 186 -332 -1 -1 -164 -5 -362 -6 l-358 -4 -105 180
c-58 99 -108 188 -110 197 -3 10 44 101 117 225 67 114 147 252 178 305 32 54
61 96 66 95 5 -2 51 -77 103 -167z m-433 -762 l38 -68 -126 0 c-123 0 -127 1
-137 24 -10 20 -3 37 52 130 l62 107 37 -63 c20 -35 53 -93 74 -130z"/>
</g>
</svg>
