<?xml version="1.0" standalone="no"?>
<!DOCTYPE svg PUBLIC "-//W3C//DTD SVG 20010904//EN"
 "http://www.w3.org/TR/2001/REC-SVG-20010904/DTD/svg10.dtd">
<svg version="1.0" xmlns="http://www.w3.org/2000/svg"
 width="512.000000pt" height="512.000000pt" viewBox="0 0 512.000000 512.000000"
 preserveAspectRatio="xMidYMid meet">

<g transform="translate(0.000000,512.000000) scale(0.100000,-0.100000)"
fill="#000000" stroke="none">
<path d="M915 4909 c-300 -44 -546 -248 -639 -530 -18 -54 -31 -121 -37 -198
-6 -72 -9 -720 -7 -1706 l3 -1590 22 -77 c25 -89 79 -201 129 -270 19 -26 69
-79 111 -118 88 -82 213 -149 337 -180 77 -20 115 -20 1748 -20 1871 0 1734
-5 1903 74 255 120 417 352 446 638 6 67 9 661 7 1708 l-3 1605 -23 79 c-80
283 -282 487 -562 569 l-75 21 -1650 2 c-907 1 -1677 -2 -1710 -7z m3146
-1030 c72 -34 134 -96 168 -168 l26 -56 0 -1090 0 -1090 -28 -57 c-36 -73
-119 -150 -189 -175 -50 -17 -121 -18 -1458 -18 l-1405 0 -62 29 c-73 33 -143
103 -176 173 l-22 48 0 1090 0 1090 27 55 c45 92 127 162 216 186 37 10 340
12 1447 11 l1400 -2 56 -26z"/>
<path d="M1390 3663 c5 -10 263 -315 573 -678 510 -598 566 -661 601 -670 29
-7 44 -5 64 6 23 13 1127 1297 1152 1342 10 16 -49 17 -1195 17 -1146 0 -1205
-1 -1195 -17z"/>
<path d="M1130 2595 c0 -558 2 -1015 4 -1015 6 0 819 989 836 1017 12 19 -12
50 -301 390 -173 203 -361 426 -419 495 -58 70 -108 127 -112 127 -5 1 -8
-456 -8 -1014z"/>
<path d="M3895 3450 c-76 -91 -267 -315 -423 -498 -156 -183 -282 -338 -279
-345 3 -7 193 -241 424 -522 l418 -509 3 506 c1 279 1 737 0 1020 l-3 513
-140 -165z"/>
<path d="M1735 1954 c-220 -268 -401 -491 -403 -496 -2 -4 564 -8 1257 -8
l1261 0 -396 483 c-218 265 -401 487 -408 494 -8 9 -39 -21 -129 -127 -105
-124 -125 -143 -184 -171 -58 -29 -75 -33 -148 -33 -73 0 -90 4 -148 32 -64
32 -110 79 -287 294 -14 17 -43 -16 -415 -468z"/>
</g>
</svg>
