<?xml version="1.0" standalone="no"?>
<!DOCTYPE svg PUBLIC "-//W3C//DTD SVG 20010904//EN"
 "http://www.w3.org/TR/2001/REC-SVG-20010904/DTD/svg10.dtd">
<svg version="1.0" xmlns="http://www.w3.org/2000/svg"
 width="512.000000pt" height="512.000000pt" viewBox="0 0 512.000000 512.000000"
 preserveAspectRatio="xMidYMid meet">

<g transform="translate(0.000000,512.000000) scale(0.100000,-0.100000)"
fill="#000000" stroke="none">
<path d="M310 3615 l0 -1505 879 0 878 0 157 -251 c86 -138 156 -254 154 -259
-2 -4 -68 -111 -148 -238 l-144 -230 -29 14 c-50 26 -178 54 -247 54 -85 0
-203 -30 -283 -72 -81 -42 -203 -164 -245 -245 -70 -133 -88 -286 -52 -427 29
-113 73 -190 160 -276 86 -87 163 -131 276 -160 141 -36 294 -18 427 52 81 42
203 164 245 245 90 172 93 375 9 546 l-34 67 121 195 c67 107 123 194 126 194
3 0 60 -88 126 -195 l122 -195 -29 -53 c-39 -71 -69 -193 -69 -276 0 -85 30
-203 72 -283 42 -81 164 -203 245 -245 133 -70 286 -88 427 -52 113 29 190 73
276 160 87 86 131 163 160 276 36 141 18 294 -52 427 -42 81 -164 203 -245
245 -80 42 -198 72 -283 72 -69 0 -197 -28 -247 -54 l-29 -14 -144 231 c-80
127 -145 236 -145 242 0 6 70 122 155 258 l155 247 878 0 877 0 0 1505 0 1505
-2250 0 -2250 0 0 -1505z m600 900 l0 -305 -150 0 -150 0 0 305 0 305 150 0
150 0 0 -305z m3000 -900 l0 -1205 -330 0 c-181 0 -330 2 -330 5 0 3 49 83
110 180 60 96 110 178 110 182 0 9 -230 155 -244 155 -5 0 -82 -117 -171 -259
l-162 -258 -842 -3 -841 -2 0 1205 0 1205 1350 0 1350 0 0 -1205z m600 900 l0
-305 -150 0 -150 0 0 305 0 305 150 0 150 0 0 -305z m-3600 -905 l0 -300 -150
0 -150 0 0 300 0 300 150 0 150 0 0 -300z m3600 0 l0 -300 -150 0 -150 0 0
300 0 300 150 0 150 0 0 -300z m-3600 -900 l0 -300 -150 0 -150 0 0 300 0 300
150 0 150 0 0 -300z m3600 0 l0 -300 -150 0 -150 0 0 300 0 300 150 0 150 0 0
-300z m-1862 -682 c-28 -46 -59 -96 -69 -112 l-17 -29 -38 59 c-20 32 -52 83
-70 112 l-34 52 140 0 140 0 -52 -82z m-704 -1162 c105 -51 161 -144 161 -266
0 -85 -21 -142 -74 -203 -82 -92 -237 -121 -353 -64 -160 79 -215 278 -118
430 80 126 246 170 384 103z m1500 0 c105 -51 161 -144 161 -266 0 -85 -21
-142 -74 -203 -82 -92 -237 -121 -353 -64 -160 79 -215 278 -118 430 80 126
246 170 384 103z"/>
<path d="M1960 3610 c0 -379 2 -690 5 -690 10 0 1375 685 1375 690 0 5 -1365
690 -1375 690 -3 0 -5 -310 -5 -690z m505 103 c107 -54 195 -100 195 -103 0
-5 -385 -200 -395 -200 -3 0 -5 90 -5 200 0 110 2 200 5 200 3 0 93 -44 200
-97z"/>
</g>
</svg>
