<?xml version="1.0" standalone="no"?>
<!DOCTYPE svg PUBLIC "-//W3C//DTD SVG 20010904//EN"
 "http://www.w3.org/TR/2001/REC-SVG-20010904/DTD/svg10.dtd">
<svg version="1.0" xmlns="http://www.w3.org/2000/svg"
 width="512.000000pt" height="512.000000pt" viewBox="0 0 512.000000 512.000000"
 preserveAspectRatio="xMidYMid meet">

<g transform="translate(0.000000,512.000000) scale(0.100000,-0.100000)"
fill="#000000" stroke="none">
<path d="M4440 5102 c-36 -9 -87 -30 -115 -46 -31 -18 -182 -160 -405 -382
l-355 -354 -1635 -2 -1635 -3 -63 -29 c-81 -37 -171 -131 -204 -213 l-23 -58
0 -1856 0 -1855 37 -76 c45 -91 103 -147 196 -191 l67 -32 1855 0 1855 0 58
23 c129 53 229 186 248 331 4 36 8 775 9 1641 l0 1574 354 356 c316 317 356
362 384 420 69 149 67 309 -6 444 -37 68 -177 213 -248 256 -109 66 -247 85
-374 52z m263 -175 c67 -34 199 -167 229 -233 17 -38 23 -68 23 -129 0 -141
28 -108 -705 -840 l-650 -650 -262 263 -263 262 645 645 c355 355 660 655 678
667 88 55 210 61 305 15z m-1561 -1030 l-263 -264 3 -351 c3 -351 3 -352 26
-374 l23 -23 354 0 355 0 260 260 260 260 0 -1533 0 -1533 -25 -49 c-27 -54
-75 -95 -132 -116 -53 -19 -3613 -21 -3677 -2 -55 16 -138 99 -154 154 -16 54
-18 3609 -2 3666 15 54 68 118 120 144 l45 23 1535 1 1534 0 -262 -263z m85
-669 c95 -95 173 -176 173 -181 0 -4 -80 -6 -177 -5 l-178 3 -3 178 c-1 97 1
177 5 177 4 0 85 -78 180 -172z"/>
<path d="M4624 4723 c-11 -2 -282 -266 -602 -586 -615 -616 -603 -602 -566
-655 24 -35 60 -45 98 -27 17 8 287 271 599 583 533 534 567 570 567 602 -1
55 -43 91 -96 83z"/>
<path d="M1497 3506 c-58 -21 -114 -62 -148 -109 -50 -69 -62 -105 -63 -192
-1 -68 3 -88 27 -137 119 -242 460 -242 579 0 19 39 23 63 23 137 0 78 -4 97
-27 140 -58 110 -164 175 -283 174 -38 0 -87 -6 -108 -13z m177 -161 c55 -26
81 -71 81 -140 0 -47 -5 -67 -23 -93 -71 -99 -219 -85 -273 26 -65 133 79 271
215 207z"/>
<path d="M2400 2917 c-140 -32 -222 -104 -300 -265 -29 -59 -54 -109 -55 -111
-2 -2 -23 11 -47 28 -163 117 -378 100 -519 -41 -44 -44 -86 -122 -390 -731
-261 -521 -342 -693 -346 -729 -11 -96 42 -193 131 -241 l41 -22 1229 -3
c1379 -3 1299 -7 1374 68 54 54 76 113 70 187 -4 51 -50 156 -379 861 -206
441 -390 824 -409 849 -92 122 -254 183 -400 150z m190 -177 c19 -10 49 -33
67 -52 39 -41 773 -1608 773 -1651 0 -16 -10 -38 -25 -52 l-24 -25 -263 0
-263 0 -354 708 -353 707 62 135 c34 74 71 147 82 162 61 87 198 118 298 68z
m-722 -279 c21 -11 53 -36 71 -56 25 -29 731 -1419 731 -1440 0 -3 -383 -5
-850 -5 -727 0 -855 2 -879 15 -30 15 -41 33 -41 66 0 10 149 317 331 682 359
717 361 721 457 752 58 18 127 13 180 -14z"/>
</g>
</svg>
