<?xml version="1.0" standalone="no"?>
<!DOCTYPE svg PUBLIC "-//W3C//DTD SVG 20010904//EN"
 "http://www.w3.org/TR/2001/REC-SVG-20010904/DTD/svg10.dtd">
<svg version="1.0" xmlns="http://www.w3.org/2000/svg"
 width="512.000000pt" height="512.000000pt" viewBox="0 0 512.000000 512.000000"
 preserveAspectRatio="xMidYMid meet">

<g transform="translate(0.000000,512.000000) scale(0.100000,-0.100000)"
fill="#000000" stroke="none">
<path d="M2375 3903 c-622 -29 -1140 -151 -1580 -370 -408 -204 -672 -470
-766 -773 -34 -108 -34 -292 0 -400 111 -359 457 -662 1005 -880 738 -294
1770 -349 2611 -139 682 170 1186 484 1379 859 72 139 91 214 91 360 0 146
-19 221 -91 360 -209 407 -802 749 -1559 899 -338 67 -761 100 -1090 84z m275
-353 c11 -11 20 -24 20 -28 0 -5 -13 -76 -30 -157 -16 -81 -30 -149 -30 -150
0 -2 82 -5 183 -8 230 -6 307 -26 385 -101 38 -35 59 -71 76 -129 l11 -40 23
119 c13 65 31 127 39 137 15 16 45 17 352 17 256 0 352 -4 405 -15 244 -52
368 -213 353 -460 -10 -167 -74 -314 -185 -429 -146 -150 -283 -196 -591 -196
l-150 0 -10 -52 c-5 -29 -20 -102 -32 -163 -11 -60 -28 -118 -37 -127 -13 -16
-36 -18 -183 -18 -184 0 -199 4 -199 59 0 16 11 83 25 151 14 68 25 129 25
136 0 11 -34 14 -175 14 -171 0 -175 0 -190 23 -14 21 -10 48 46 333 60 311
71 385 56 401 -5 4 -72 9 -150 11 l-142 3 -72 -373 c-55 -283 -76 -376 -90
-385 -12 -9 -65 -13 -185 -13 -215 0 -208 -8 -174 170 13 69 23 126 22 128 -2
1 -16 -16 -32 -39 -43 -62 -137 -143 -213 -183 -102 -53 -179 -68 -396 -75
l-190 -6 -31 -164 c-24 -121 -37 -168 -50 -178 -13 -9 -62 -13 -181 -13 -150
0 -165 2 -183 20 -11 11 -20 23 -20 28 0 38 271 1386 281 1398 11 14 55 15
383 12 395 -5 416 -7 519 -60 85 -43 164 -138 192 -231 16 -52 8 -80 85 318
45 230 64 313 77 323 12 8 65 12 180 12 150 0 165 -2 183 -20z"/>
<path d="M2317 3488 c-8 -31 -257 -1313 -257 -1321 0 -4 65 -7 144 -7 l145 0
10 53 c6 28 36 180 66 337 30 157 60 309 66 339 l11 53 161 -4 c173 -5 207
-13 226 -55 18 -40 13 -80 -49 -401 -33 -170 -60 -312 -60 -316 0 -4 66 -5
147 -4 l147 3 64 320 c66 331 77 440 54 506 -18 52 -76 105 -139 129 -62 23
-226 40 -394 40 l-116 0 27 138 c15 75 31 154 34 175 l7 37 -144 0 c-142 0
-145 0 -150 -22z"/>
<path d="M1067 3139 c-8 -31 -257 -1315 -257 -1323 0 -3 65 -6 144 -6 129 0
145 2 150 18 2 9 16 78 31 152 14 74 28 144 30 156 4 20 12 21 202 28 109 3
230 13 268 21 195 41 356 190 422 390 34 103 38 261 10 343 -23 66 -98 149
-163 182 -95 47 -138 52 -495 57 l-336 5 -6 -23z m628 -224 c22 -11 50 -36 63
-55 22 -32 24 -43 19 -125 -7 -139 -58 -250 -137 -300 -67 -42 -142 -56 -292
-53 l-134 3 46 240 c26 132 50 257 54 278 l7 39 167 -4 c143 -3 173 -6 207
-23z"/>
<path d="M1367 2874 c-4 -10 -22 -102 -42 -204 -19 -102 -38 -197 -41 -212
l-6 -28 69 0 c97 0 198 17 243 40 73 37 123 135 135 261 11 121 -28 149 -225
157 -119 4 -128 3 -133 -14z"/>
<path d="M3367 3154 c-3 -5 -62 -302 -131 -659 -69 -358 -128 -658 -130 -667
-4 -17 8 -18 143 -18 l148 0 33 173 33 174 201 7 c111 3 231 13 269 21 186 39
356 197 418 387 20 61 24 93 24 198 0 113 -2 130 -25 175 -30 60 -93 126 -149
154 -93 48 -137 53 -492 58 -188 3 -339 2 -342 -3z m592 -230 c99 -29 132 -94
113 -220 -25 -159 -86 -255 -190 -295 -48 -19 -82 -23 -216 -27 l-159 -4 5 23
c2 13 27 140 54 281 l49 258 146 0 c103 0 161 -5 198 -16z"/>
<path d="M3621 2678 c-22 -118 -41 -223 -41 -233 0 -17 9 -18 108 -12 59 3
129 13 156 21 101 31 163 130 173 277 9 130 -17 149 -223 157 l-131 5 -42
-215z"/>
</g>
</svg>
