<?xml version="1.0" standalone="no"?>
<!DOCTYPE svg PUBLIC "-//W3C//DTD SVG 20010904//EN"
 "http://www.w3.org/TR/2001/REC-SVG-20010904/DTD/svg10.dtd">
<svg version="1.0" xmlns="http://www.w3.org/2000/svg"
 width="156.000000pt" height="156.000000pt" viewBox="0 0 156.000000 156.000000"
 preserveAspectRatio="xMidYMid meet">

<g transform="translate(0.000000,156.000000) scale(0.100000,-0.100000)"
fill="#000000" stroke="none">
<path d="M16 1544 c-14 -14 -16 -97 -16 -764 0 -667 2 -750 16 -764 14 -14 97
-16 764 -16 667 0 750 2 764 16 14 14 16 97 16 764 0 667 -2 750 -16 764 -14
14 -97 16 -764 16 -667 0 -750 -2 -764 -16z m1019 -146 c33 -14 101 -48 150
-77 100 -57 167 -81 231 -81 49 0 74 -22 57 -48 -26 -41 -190 0 -333 83 -211
123 -311 123 -503 -1 -132 -86 -157 -94 -289 -94 l-118 0 0 30 0 30 110 0
c124 0 130 2 275 93 119 75 192 99 285 94 48 -3 96 -14 135 -29z m-22 -254
c45 -15 48 -18 42 -43 -18 -74 -86 -131 -158 -131 -74 0 -143 56 -162 131 -8
31 -4 34 66 54 62 17 139 13 212 -11z m-823 -574 c0 -48 1 -49 33 -52 42 -4
41 -22 -1 -26 -48 -5 -62 12 -62 73 0 28 3 55 6 58 15 14 24 -7 24 -53z m160
45 c0 -10 -10 -15 -30 -15 -20 0 -30 -5 -30 -15 0 -10 10 -15 30 -15 17 0 30
-4 30 -10 0 -5 -13 -10 -30 -10 -42 0 -40 -28 3 -32 42 -4 41 -22 -1 -26 -47
-5 -62 12 -62 69 0 53 14 68 63 69 17 0 27 -5 27 -15z m-47 -185 c31 0 49 -14
41 -33 -5 -13 -15 -15 -56 -10 -37 4 -52 2 -58 -8 -12 -19 5 -36 62 -61 54
-23 68 -41 68 -87 0 -22 -7 -35 -27 -48 -49 -33 -181 -16 -167 21 4 10 23 14
72 12 62 -1 67 1 70 21 3 19 -6 27 -51 47 -70 31 -94 64 -77 106 12 30 59 53
88 44 8 -2 23 -4 35 -4z m254 -22 c30 -34 34 -55 19 -93 -15 -36 -30 -43 -101
-47 l-40 -3 -3 -47 c-3 -40 -6 -48 -23 -48 -18 0 -19 8 -19 130 l0 130 73 0
c64 0 76 -3 94 -22z m103 -28 l0 -50 55 0 55 0 0 50 c0 47 2 50 25 50 l25 0 0
-130 0 -130 -25 0 c-24 0 -25 3 -25 55 l0 55 -55 0 -55 0 0 -55 c0 -52 -1 -55
-25 -55 l-25 0 0 130 0 130 25 0 c23 0 25 -3 25 -50z m250 -80 c0 -123 -1
-130 -20 -130 -19 0 -20 7 -20 130 0 123 1 130 20 130 19 0 20 -7 20 -130z
m162 30 l58 -94 0 97 0 97 25 0 26 0 -3 -127 -3 -128 -26 -3 c-24 -3 -33 7
-80 84 l-54 88 -3 -87 c-3 -85 -3 -87 -27 -87 l-25 0 0 131 0 130 27 -3 c23
-2 38 -19 85 -98z m200 60 c13 -22 26 -40 29 -40 3 0 15 18 28 40 16 30 29 40
47 40 13 0 24 -3 24 -6 0 -3 -16 -32 -36 -64 l-36 -59 19 -28 c11 -15 30 -45
42 -65 l23 -38 -29 0 c-23 0 -33 9 -56 47 l-29 47 -26 -47 c-21 -39 -30 -47
-54 -47 -21 0 -27 4 -22 13 4 6 23 36 42 65 l34 54 -36 58 c-20 32 -36 61 -36
64 0 3 11 6 25 6 18 0 30 -10 47 -40z"/>
<path d="M437 383 c-4 -3 -7 -22 -7 -40 l0 -34 48 3 c40 3 47 6 50 26 2 13 -2
30 -8 38 -13 14 -71 20 -83 7z"/>
</g>
</svg>
