<?xml version="1.0" standalone="no"?>
<!DOCTYPE svg PUBLIC "-//W3C//DTD SVG 20010904//EN"
 "http://www.w3.org/TR/2001/REC-SVG-20010904/DTD/svg10.dtd">
<svg version="1.0" xmlns="http://www.w3.org/2000/svg"
 width="512.000000pt" height="512.000000pt" viewBox="0 0 512.000000 512.000000"
 preserveAspectRatio="xMidYMid meet">

<g transform="translate(0.000000,512.000000) scale(0.100000,-0.100000)"
fill="#000000" stroke="none">
<path d="M2370 5113 c-379 -36 -661 -116 -980 -278 -378 -193 -717 -497 -965
-865 -104 -156 -232 -419 -294 -605 -49 -150 -89 -321 -113 -490 -17 -118 -17
-512 0 -630 42 -295 120 -553 242 -800 137 -280 272 -468 494 -691 221 -220
412 -357 681 -489 188 -92 309 -137 500 -185 500 -126 1002 -102 1490 71 150
53 408 183 540 271 560 374 952 942 1095 1588 33 150 50 291 57 465 15 426
-73 832 -263 1214 -124 250 -263 447 -458 648 -214 222 -430 379 -711 518
-296 146 -572 225 -900 255 -102 9 -333 11 -415 3z m545 -342 c628 -106 1158
-448 1511 -977 179 -267 296 -573 351 -909 24 -153 24 -497 0 -650 -108 -668
-474 -1222 -1042 -1580 -243 -153 -537 -261 -850 -312 -154 -24 -497 -24 -650
1 -657 107 -1198 456 -1557 1006 -168 257 -281 557 -335 885 -24 153 -24 497
0 650 81 497 291 912 636 1255 382 381 862 605 1401 654 108 10 418 -4 535
-23z"/>
<path d="M1452 3783 c-62 -30 -96 -114 -78 -190 5 -19 178 -199 549 -571 298
-299 554 -550 569 -558 35 -18 101 -18 136 0 33 18 1095 1082 1111 1113 19 38
13 116 -11 153 -42 61 -124 86 -195 59 -15 -5 -241 -222 -500 -482 l-473 -472
-472 472 c-260 260 -486 477 -501 482 -41 16 -97 13 -135 -6z"/>
<path d="M1446 2447 c-21 -12 -47 -38 -57 -57 -21 -39 -25 -110 -8 -143 16
-31 1078 -1095 1111 -1113 35 -18 101 -18 136 0 33 18 1095 1082 1111 1113 6
12 11 43 11 70 0 110 -110 182 -217 142 -15 -5 -241 -222 -500 -482 l-473
-472 -472 472 c-260 260 -486 477 -501 482 -45 17 -99 13 -141 -12z"/>
</g>
</svg>
